# xmcd
#
# Track frame offsets:
#	150
#	18287
#	36312
#	44220
#	62647
#	76875
#	91925
#	101575
#	105345
#	116395
#	138822
#	155902
#	170695
#	184237
#	193977
#	205292
#	217147
#	234980
#	250355
#	270275
#	290485
#	309982
#	346185
#
# Disc length: 4801 seconds
#
# Revision: 1
# Processed by: cddbd v1.5.1PL0 Copyright (c) Steve Scherf et al.
# Submitted via: CDex 1.50Beta5
#
DISCID=4d12bf17
DTITLE=Various Artist - Saravah For Caf将ア Apr将イs-Midi 2
DYEAR=2002
DGENRE=World
TTITLE0=Ren将ア Urtreger/Moment's Notice
TTITLE1=Baroque Jazz Trio/Latin Baroque
TTITLE2=Le Trio Camara/Upa Neguinho
TTITLE3=Nana Vasconcelos, Nelson Angelo, Novelli/Tiro Crusado
TTITLE4=Chic Streetman/Ode To Mafeen
TTITLE5=Fran将ョoise Hardy/Femme Parmi Les Femmes
TTITLE6=Pierre Barouh Et Francis Lai/13 Jours En France
TTITLE7=Fr将アd将アric Devreese/Harpe
TTITLE8=Leo Brouwer/Guantanamera
TTITLE9=Pierre Akendengue/Afrika Obota
TTITLE10=Aram S将アd将イfian/Vancouver-St. Lazare
TTITLE11=Pierre Barouh/Viking Bank
TTITLE12=Carole Laure/Joue-Moi Un Tango
TTITLE13=Pierre Barouh/La For将エt
TTITLE14=Joel Favreau/Devant L'infini
TTITLE15=Michel Zacka/On Peut R将エver
TTITLE16=Pierre Barouh/Perdu
TTITLE17=Pierre Barouh/Ce N'est Que De L'eau
TTITLE18=Brigitte Fontaine Et Jacques Higelin/Cet Enfant Que Je T'avais Fait
TTITLE19=Maurice Vander/Moon River
TTITLE20=Brigitte Fontaine Et Areski/C'est Normal
TTITLE21=Brigitte Fontaine/Comme 宵「 La Radio
TTITLE22=Pierre Barouh/Chanson Ouverte 宵「 Mon Directeur Artistique
EXTD=
EXTT0=
EXTT1=
EXTT2=
EXTT3=
EXTT4=
EXTT5=
EXTT6=
EXTT7=
EXTT8=
EXTT9=
EXTT10=
EXTT11=
EXTT12=
EXTT13=
EXTT14=
EXTT15=
EXTT16=
EXTT17=
EXTT18=
EXTT19=
EXTT20=
EXTT21=
EXTT22=
PLAYORDER=
